<?xml version="1.0" encoding="UTF-8"?>
<svg id="a" data-name="Layer 1" xmlns="http://www.w3.org/2000/svg" viewBox="0 0 1025 1183.5">
  <defs>
    <style>
      .b {
        fill: #1e8451;
      }

      .b, .c {
        stroke-width: 0px;
      }

      .c {
        fill: #b9a46a;
      }
    </style>
  </defs>
  <path class="c" d="m512.5,1183.5L0,887.6V295.9L512.5,0l512.5,295.9v591.8l-512.5,295.8ZM29.6,870.5l482.9,278.8,482.9-278.8V313L512.5,34.2,29.6,313v557.5Z"/>
  <polygon class="b" points="512.5 81.7 70.7 336.7 70.7 846.8 173.6 906.2 173.6 396.1 512.5 200.5 851.3 396.1 851.3 906.2 954.2 846.8 954.2 336.7 512.5 81.7"/>
  <polygon class="b" points="707.3 360.5 512.5 473 317.6 360.5 214.7 419.9 461 562.1 461 953.4 461 1072.2 512.5 1101.8 563.9 1072.2 563.9 953.4 563.9 562.1 810.2 419.9 707.3 360.5"/>
</svg>